<svg width="34" height="35" viewBox="0 0 34 35" fill="none" xmlns="http://www.w3.org/2000/svg">
<path d="M30.4668 24.675V29.05C30.4684 29.4561 30.3894 29.8581 30.2349 30.2303C30.0804 30.6024 29.8538 30.9365 29.5696 31.211C29.2854 31.4856 28.9498 31.6946 28.5845 31.8248C28.2191 31.9549 27.832 32.0032 27.4479 31.9666C23.1865 31.479 19.0931 29.9456 15.4966 27.4896C12.1506 25.2505 9.31374 22.2631 7.18753 18.7396C4.84711 14.9351 3.39061 10.6035 2.93605 6.09581C2.90144 5.69253 2.94695 5.28609 3.06968 4.90235C3.19242 4.51861 3.38968 4.16598 3.64892 3.86693C3.90816 3.56787 4.22368 3.32893 4.57542 3.16532C4.92715 3.00172 5.30738 2.91703 5.6919 2.91665H9.84644C10.5185 2.90968 11.1701 3.1603 11.6797 3.6218C12.1892 4.08329 12.5221 4.72417 12.6161 5.42498C12.7915 6.82508 13.1167 8.19979 13.5855 9.5229C13.7719 10.0449 13.8122 10.6121 13.7017 11.1575C13.5913 11.7029 13.3347 12.2035 12.9624 12.6L11.2036 14.4521C13.175 18.1031 16.0457 21.126 19.5127 23.2021L21.2714 21.35C21.648 20.9579 22.1233 20.6877 22.6412 20.5714C23.1591 20.4551 23.6978 20.4975 24.1935 20.6937C25.4499 21.1874 26.7554 21.5299 28.0849 21.7146C28.7576 21.8145 29.372 22.1713 29.8112 22.7172C30.2503 23.263 30.4837 23.9598 30.4668 24.675Z" stroke="white" stroke-width="3" stroke-linecap="round" stroke-linejoin="round"/>
</svg>
